<?xml version="1.0" standalone="no"?>
<svg xmlns:xlink="http://www.w3.org/1999/xlink" id="wave" style="transform:rotate(180deg); transition: 0.3s" viewBox="0 0 1440 140" version="1.1" xmlns="http://www.w3.org/2000/svg"><defs><linearGradient id="sw-gradient-0" x1="0" x2="0" y1="1" y2="0"><stop stop-color="rgba(255, 249, 234, 1)" offset="0%"/><stop stop-color="rgba(255, 249, 234, 1)" offset="100%"/></linearGradient></defs><path style="transform:translate(0, 0px); opacity:1" fill="url(#sw-gradient-0)" d="M0,28L60,39.7C120,51,240,75,360,70C480,65,600,33,720,35C840,37,960,75,1080,86.3C1200,98,1320,84,1440,74.7C1560,65,1680,61,1800,60.7C1920,61,2040,65,2160,72.3C2280,79,2400,89,2520,88.7C2640,89,2760,79,2880,77C3000,75,3120,79,3240,70C3360,61,3480,37,3600,39.7C3720,42,3840,70,3960,79.3C4080,89,4200,79,4320,77C4440,75,4560,79,4680,72.3C4800,65,4920,47,5040,53.7C5160,61,5280,93,5400,105C5520,117,5640,107,5760,98C5880,89,6000,79,6120,63C6240,47,6360,23,6480,16.3C6600,9,6720,19,6840,23.3C6960,28,7080,28,7200,23.3C7320,19,7440,9,7560,9.3C7680,9,7800,19,7920,23.3C8040,28,8160,28,8280,39.7C8400,51,8520,75,8580,86.3L8640,98L8640,140L8580,140C8520,140,8400,140,8280,140C8160,140,8040,140,7920,140C7800,140,7680,140,7560,140C7440,140,7320,140,7200,140C7080,140,6960,140,6840,140C6720,140,6600,140,6480,140C6360,140,6240,140,6120,140C6000,140,5880,140,5760,140C5640,140,5520,140,5400,140C5280,140,5160,140,5040,140C4920,140,4800,140,4680,140C4560,140,4440,140,4320,140C4200,140,4080,140,3960,140C3840,140,3720,140,3600,140C3480,140,3360,140,3240,140C3120,140,3000,140,2880,140C2760,140,2640,140,2520,140C2400,140,2280,140,2160,140C2040,140,1920,140,1800,140C1680,140,1560,140,1440,140C1320,140,1200,140,1080,140C960,140,840,140,720,140C600,140,480,140,360,140C240,140,120,140,60,140L0,140Z"/></svg>